<?xml version="1.0" encoding="UTF-8"?>
<svg xmlns="http://www.w3.org/2000/svg" id="Layer_1" data-name="Layer 1" viewBox="0 0 512 512" width="512" height="512"><path d="M501,242.242l-.543-15.747a4.956,4.956,0,0,0-3.98-4.714l0-.009-78.191-16.293a5.016,5.016,0,0,0-3.625.627L354.9,242.584c.343-1.771.828-3.56,1.031-5.366A17.448,17.448,0,0,0,371,220.156v-4.462A18.023,18.023,0,0,0,353.326,198h-5.043c4.16-9,8.3-18.545,10.617-23.769a13.17,13.17,0,0,1,8.759-7.5,16.46,16.46,0,0,0,2.415-31.173l-36.726-15.43a16.722,16.722,0,0,0-21.778,8.485,16.43,16.43,0,0,0-.154,12.941,16.183,16.183,0,0,0,1.033,2.08,13.28,13.28,0,0,1,.729,11.577L296,198H149.052C139.541,198,132,206.184,132,215.694v4.462a17.059,17.059,0,0,0,3.514,10.522l-40.3-24.572a5.07,5.07,0,0,0-3.678-.621L15.507,221.778l0,.009a4.956,4.956,0,0,0-3.956,4.708L11,242.242a5,5,0,0,0,2.492,4.5l157.868,91.4L86.115,391.293a5.019,5.019,0,0,0-1.384,1.282l-72.218,98.28a5.163,5.163,0,0,0-.431,5.311A5.085,5.085,0,0,0,16.543,499H37.177a5.088,5.088,0,0,0,2.366-.688L255.451,382.257,470.275,498.331a5.081,5.081,0,0,0,2.376.669h22.806a5.11,5.11,0,0,0,4.029-8.1l-72.217-98.3a5.059,5.059,0,0,0-1.383-1.294l-85.249-53.16,157.868-91.4A5.006,5.006,0,0,0,501,242.242Zm-82.815-26.569,63.138,13.155L286.406,337.449,281.078,314h22.084A4.686,4.686,0,0,0,308,309.212V296.9c19-7.246,34.569-21.909,42.342-39.866ZM204,304V293.347a5.161,5.161,0,0,0-3.365-4.963C176.926,280.778,159.914,261,156.753,237H345.625c-3.16,24-20.361,43.781-44.071,51.384A5.328,5.328,0,0,0,298,293.347V304Zm73.307,38.525L256,354.464l-23.22-13.033L239.007,314H270.82ZM322.582,158.8a23.235,23.235,0,0,0-1.453-20.33,5.834,5.834,0,0,1-.43-.764,6.456,6.456,0,0,1,.048-5.09,6.667,6.667,0,0,1,8.734-3.277l36.727,15.444a6.527,6.527,0,0,1-.974,12.351,23.077,23.077,0,0,0-15.476,13.041C347.109,176.157,342.07,188,337.348,198H307ZM142,215.248A7.248,7.248,0,0,1,149.248,208h204.5A7.248,7.248,0,0,1,361,215.248v4.5A7.248,7.248,0,0,1,353.752,227h-204.5A7.248,7.248,0,0,1,142,219.752Zm-50.343.433,57.93,35.431C156.388,271.744,173,288.872,194,296.9v12.312A5.013,5.013,0,0,0,199.216,314h29.535l-5.071,22.382L30.579,228.719ZM21.1,239.59l.158-4.568L245.736,360.241l-5.875,3.278ZM92.221,399.271l89.048-55.524,48.191,25.574L34.186,478.249ZM473.915,489,257.833,372.224a5,5,0,0,0-4.742.041L35.919,489h-.15L256,366.15,476.23,489Zm-54.136-89.729,58.034,78.978L281.6,368.8l49.088-25.077ZM271.091,362.934l-4.828-2.693L490.742,235.022l.157,4.567Z"/><path d="M304.911,13.9a5,5,0,0,0-4.835-.182L233.952,47.09A51.329,51.329,0,0,0,206.2,85.764a51.326,51.326,0,0,0-44.859-15.91L88,80.207a5,5,0,0,0-3.457,7.731L125.726,149.5a51.5,51.5,0,0,0,61.2,19.483c1.091-.417,2.178-.874,3.23-1.359a51.032,51.032,0,0,0,19.185-15.353,150.909,150.909,0,0,1,17.307,20.318,6.785,6.785,0,0,0,12.339-3.869,150.659,150.659,0,0,1,2.616-26.562,50.866,50.866,0,0,0,24.51,1.652c1.146-.2,2.3-.448,3.427-.727a51.516,51.516,0,0,0,39.125-50.938l-1.34-74.055A5,5,0,0,0,304.911,13.9ZM185.97,158.546c-.85.392-1.727.762-2.609,1.1h0a41.511,41.511,0,0,1-49.321-15.7L100.645,94.019c20.462,5.439,65.813,20.224,101.336,51.409A41.115,41.115,0,0,1,185.97,158.546Zm20.989-22.02c-19.724-16.937-41.589-28.789-59.335-36.617a306.248,306.248,0,0,0-35.332-13.031l50.451-7.122a41.5,41.5,0,0,1,43.905,24.63l2.547,8.1A41.54,41.54,0,0,1,206.959,136.526Zm22.375,23.013a166.857,166.857,0,0,0-14.612-15.957,52.016,52.016,0,0,0,4.777-15.4,51.977,51.977,0,0,0,12.72,9.921A167.1,167.1,0,0,0,229.334,159.539Zm5.232-31.669A41.527,41.527,0,0,1,219,109.4l-2.526-8.077a41.5,41.5,0,0,1,21.982-45.307l45.487-22.956a306.288,306.288,0,0,0-21.569,30.872C252.275,80.492,241.09,102.705,234.566,127.87Zm52.224-5.709a41.457,41.457,0,0,1-19.652,11.218c-.911.225-1.843.424-2.77.589a41.13,41.13,0,0,1-20.623-1.627c11.368-45.843,40.146-83.89,53.838-100.054L298.67,92.33A41.225,41.225,0,0,1,286.79,122.161Z"/></svg>
