<svg id="Line" enable-background="new 0 0 32 32" height="512" viewBox="0 0 32 32" width="512" xmlns="http://www.w3.org/2000/svg"><path d="m14 12c0-4.75 4.127-8.472 8.877-7.952 4.146.443 7.272 4.242 7.117 8.647-.131 3.721-1.445 5.01-4.064 7.578-.792.775-1.553 2.254-2.227 4.299-.677 2.05-2.576 3.428-4.727 3.428-2.744 0-4.976-2.233-4.976-4.978v-2.022c0-.553.447-1 1-1s1 .447 1 1v2.022c0 1.642 1.335 2.978 2.976 2.978 1.286 0 2.423-.825 2.828-2.055.784-2.38 1.693-4.088 2.701-5.076 2.54-2.491 3.388-3.322 3.491-6.244.118-3.362-2.224-6.256-5.332-6.589-3.692-.393-6.664 2.505-6.664 5.964 0 .553-.447 1-1 1s-1-.447-1-1z"/><path d="m20 17c0-.552-.448-1-1-1-.553 0-1-.447-1-1v-3c0-2.477 2.219-4.367 4.717-3.938 1.616.284 2.94 1.611 3.222 3.229.04.242.061.478.061.71 0 .553-.447 1-1 1s-1-.447-1-1c0-.121-.011-.245-.032-.37-.137-.787-.809-1.46-1.597-1.598-1.277-.231-2.371.751-2.371 1.967v2.171c1.164.413 2 1.525 2 2.829s-.836 2.416-2 2.829v.171c0 .553-.447 1-1 1s-1-.447-1-1v-1c0-.553.447-1 1-1 .552 0 1-.448 1-1z"/><path d="m1 17c0-.553.447-1 1-1h1.323l1.748-4.371c.158-.395.528-.658.974-.628.425.019.791.305.913.712l2.092 6.975 2.002-6.004c.128-.384.474-.652.877-.681.42-.033.785.188.966.55l1.723 3.447h1.382c.553 0 1 .447 1 1s-.447 1-1 1h-2c-.379 0-.725-.214-.895-.553l-.92-1.841-2.237 6.71c-.136.409-.518.684-.948.684-.005 0-.01 0-.016 0-.436-.007-.817-.295-.942-.713l-2.177-7.257-.937 2.341c-.152.38-.519.629-.928.629h-2c-.553 0-1-.447-1-1z"/></svg>