<?xml version="1.0" encoding="UTF-8" standalone="no"?>
<!-- Created with Inkscape (http://www.inkscape.org/) -->

<svg
   version="1.1"
   id="svg3570"
   xml:space="preserve"
   width="682.66669"
   height="682.66669"
   viewBox="0 0 682.66669 682.66669"
   xmlns="http://www.w3.org/2000/svg"
   xmlns:svg="http://www.w3.org/2000/svg"><defs
     id="defs3574"><clipPath
       clipPathUnits="userSpaceOnUse"
       id="clipPath3584"><path
         d="M 0,512 H 512 V 0 H 0 Z"
         id="path3582" /></clipPath></defs><g
     id="g3576"
     transform="matrix(1.3333333,0,0,-1.3333333,0,682.66667)"><g
       id="g3578"><g
         id="g3580"
         clip-path="url(#clipPath3584)"><g
           id="g3586"
           transform="translate(233.1733,451.7559)"><path
             d="m 0,0 c 11.23,32.494 22.827,52.744 22.827,52.744 0,0 43.587,-76.111 43.587,-170 0,-93.889 -43.587,-170 -43.587,-170 0,0 -43.588,76.111 -43.588,170 0,30.431 4.579,58.994 10.769,83.703"
             style="fill:none;stroke:#000000;stroke-width:15;stroke-linecap:round;stroke-linejoin:round;stroke-miterlimit:10;stroke-dasharray:none;stroke-opacity:1"
             id="path3588" /></g><g
           id="g3590"
           transform="translate(256.0098,164.5098)"><path
             d="M 0,0 -0.01,-0.01 -0.02,0 h 0.01 z"
             style="fill:none;stroke:#000000;stroke-width:15;stroke-linecap:round;stroke-linejoin:round;stroke-miterlimit:10;stroke-dasharray:none;stroke-opacity:1"
             id="path3592" /></g><g
           id="g3594"
           transform="translate(255.9902,164.5195)"><path
             d="m 0,0 c -1.01,0.431 -65.75,28.82 -111.42,89.431 -46.03,61.08 -55.26,131.759 -55.26,131.759 0,0 65.4,-28.339 111.43,-89.44 7,-9.279 13.15,-18.789 18.54,-28.239"
             style="fill:none;stroke:#000000;stroke-width:15;stroke-linecap:round;stroke-linejoin:round;stroke-miterlimit:10;stroke-dasharray:none;stroke-opacity:1"
             id="path3596" /></g><g
           id="g3598"
           transform="translate(88.7031,191.4531)"><path
             d="m 0,0 c -38.994,21.708 -62.883,47.837 -62.883,47.837 0,0 61.02,12.49 124.59,-8.17 7.59,-2.47 14.87,-5.29 21.8,-8.36"
             style="fill:none;stroke:#000000;stroke-width:15;stroke-linecap:round;stroke-linejoin:round;stroke-miterlimit:10;stroke-dasharray:none;stroke-opacity:1"
             id="path3600" /></g><g
           id="g3602"
           transform="translate(255.9502,164.54)"><path
             d="m 0,0 c 0.03,-0.03 0.05,-0.04 0.05,-0.04 0,0 -61.02,-12.49 -124.59,8.17 -3.725,1.21 -7.375,2.507 -10.947,3.876"
             style="fill:none;stroke:#000000;stroke-width:15;stroke-linecap:round;stroke-linejoin:round;stroke-miterlimit:10;stroke-dasharray:none;stroke-opacity:1"
             id="path3604" /></g><g
           id="g3606"
           transform="translate(339.8101,222.7695)"><path
             d="m 0,0 c 6.93,3.061 14.2,5.881 21.78,8.351 63.57,20.66 124.59,8.17 124.59,8.17 0,0 -42.03,-45.97 -105.59,-66.621 -63.57,-20.66 -124.59,-8.17 -124.59,-8.17 l 0.01,0.01"
             style="fill:none;stroke:#000000;stroke-width:15;stroke-linecap:round;stroke-linejoin:round;stroke-miterlimit:10;stroke-dasharray:none;stroke-opacity:1"
             id="path3608" /></g><g
           id="g3610"
           transform="translate(256,164.5)"><path
             d="m 0,0 c 0,0 -22.78,-40.37 -65.42,-65.99 -42.63,-25.62 -88.97,-26.78 -88.97,-26.78 0,0 22.78,40.37 65.42,65.99 23.01,13.83 47.11,20.53 64.41,23.77 C -9.36,-1.91 0,0 0,0 Z"
             style="fill:none;stroke:#000000;stroke-width:15;stroke-linecap:round;stroke-linejoin:round;stroke-miterlimit:10;stroke-dasharray:none;stroke-opacity:1"
             id="path3612" /></g><g
           id="g3614"
           transform="translate(410.3901,71.7305)"><path
             d="m 0,0 c 0,0 -46.34,1.159 -88.97,26.779 -42.64,25.62 -65.42,65.991 -65.42,65.991 0,0 9.36,-1.911 24.56,-3.01 17.3,-3.24 41.4,-9.941 64.41,-23.771 C -22.78,40.369 0,0 0,0 Z"
             style="fill:none;stroke:#000000;stroke-width:15;stroke-linecap:round;stroke-linejoin:round;stroke-miterlimit:10;stroke-dasharray:none;stroke-opacity:1"
             id="path3616" /></g><g
           id="g3618"
           transform="translate(256,164.5098)"><path
             d="M 0,0 H 0.01 L 0,-0.01 Z"
             style="fill:none;stroke:#000000;stroke-width:15;stroke-linecap:round;stroke-linejoin:round;stroke-miterlimit:10;stroke-dasharray:none;stroke-opacity:1"
             id="path3620" /></g><g
           id="g3622"
           transform="translate(300.6875,190.5664)"><path
             d="m 0,0 c -24.833,-17.364 -44.13,-25.823 -44.678,-26.057 v 0.01"
             style="fill:none;stroke:#000000;stroke-width:15;stroke-linecap:round;stroke-linejoin:round;stroke-miterlimit:10;stroke-dasharray:none;stroke-opacity:1"
             id="path3624" /></g><g
           id="g3626"
           transform="translate(292.71,268.0098)"><path
             d="m 0,0 c 5.39,9.45 11.55,18.971 18.55,28.26 46.03,61.091 111.43,89.44 111.43,89.44 0,0 -9.23,-70.69 -55.26,-131.77 -12.218,-16.214 -25.8,-30.122 -39.161,-41.806"
             style="fill:none;stroke:#000000;stroke-width:15;stroke-linecap:round;stroke-linejoin:round;stroke-miterlimit:10;stroke-dasharray:none;stroke-opacity:1"
             id="path3628" /></g><g
           id="g3630"
           transform="translate(274.1309,49.1338)"><path
             d="m 0,0 c 1.598,-13.581 3.405,-22.518 4.93,-29.549 1.349,-6.219 -3.416,-12.085 -9.78,-12.085 h -26.562 c -6.364,0 -11.129,5.866 -9.78,12.085 3.7,17.057 9.061,45.329 9.061,123.915"
             style="fill:none;stroke:#000000;stroke-width:15;stroke-linecap:round;stroke-linejoin:round;stroke-miterlimit:10;stroke-dasharray:none;stroke-opacity:1"
             id="path3632" /></g><g
           id="g3634"
           transform="translate(270,143.5)"><path
             d="M 0,0 C 0,-24.151 0.506,-43.552 1.315,-59.334"
             style="fill:none;stroke:#000000;stroke-width:15;stroke-linecap:round;stroke-linejoin:round;stroke-miterlimit:10;stroke-dasharray:none;stroke-opacity:1"
             id="path3636" /></g></g></g></g></svg>
