<svg id="Capa_1" enable-background="new 0 0 512.004 512.004" height="512" viewBox="0 0 512.004 512.004" width="512" xmlns="http://www.w3.org/2000/svg"><g><path d="m280.931 441.143c-4.143 0-7.5-3.358-7.5-7.5v-37.885c-14.9-.352-29.695-2.066-44.105-5.124l-12.897 39.233c-1.294 3.936-5.534 6.073-9.467 4.783-3.935-1.293-6.076-5.532-4.783-9.467l12.541-38.147c-6.638-1.869-13.163-4.032-19.554-6.49-5.14-1.977-10.117-4.115-14.925-6.408l-25.41 33.802c-2.489 3.311-7.191 3.977-10.502 1.488s-3.977-7.191-1.488-10.502l23.949-31.858c-10.325-5.964-19.689-12.707-27.969-20.115l-34.558 23.62c-3.419 2.338-8.087 1.459-10.424-1.96s-1.46-8.086 1.96-10.424l32.184-21.998c-8.191-9.052-14.924-18.892-20.027-29.369l-37.039 6.473c-4.08.71-7.966-2.017-8.679-6.097s2.017-7.966 6.097-8.679l42.749-7.471c3.431-.602 6.832 1.247 8.195 4.458 27.16 64.004 121.444 99.778 210.181 79.742 28.285-6.386 53.741-18.053 73.616-33.738 2.357-1.861 5.594-2.136 8.231-.701l34.653 18.858c3.639 1.98 4.982 6.535 3.003 10.173s-6.532 4.983-10.173 3.003l-30.38-16.533c-4.507 3.337-9.249 6.493-14.198 9.453l21.893 34.932c2.199 3.51 1.137 8.138-2.373 10.338-3.509 2.199-8.139 1.137-10.338-2.372l-22.379-35.709c-11.435 5.659-23.75 10.365-36.694 14.002l11.252 34.954c1.269 3.943-.898 8.168-4.842 9.437-3.941 1.27-8.168-.898-9.438-4.841l-11.574-35.958c-13.61 2.888-27.455 4.584-41.29 5.106v37.991c.002 4.142-3.356 7.5-7.498 7.5zm161.449-130.062c-2.071 0-4.133-.853-5.615-2.524l-15.559-17.548c-5.496-6.2-13.401-9.756-21.688-9.756h-32.016c-4.143 0-7.5-3.358-7.5-7.5s3.357-7.5 7.5-7.5h32.016c12.574 0 24.57 5.396 32.912 14.805l15.559 17.548c2.747 3.099 2.463 7.839-.637 10.587-1.427 1.265-3.204 1.888-4.972 1.888zm64.683-59.242-222.089-80.669 62.01-10.853 125.07 43.194c2.715.938 5.723.243 7.752-1.786l30-30c1.525-1.525 2.32-3.634 2.181-5.787-.14-2.153-1.199-4.142-2.908-5.458-10.505-8.089-21.66-15.687-33.323-22.699l30.04-5.257c4.08-.714 6.809-4.601 6.095-8.681-.714-4.079-4.591-6.809-8.681-6.095l-246.528 43.145-128.008-46.497c33.973-7.379 69.829-5.359 102.765 6.015l59.256 20.465c3.916 1.353 8.185-.726 9.537-4.641 1.353-3.915-.726-8.185-4.641-9.538l-59.256-20.465c-10.865-3.752-22.022-6.561-33.329-8.424 18.066-2.157 36.368-3.221 54.634-3.158 51.715.188 103.473 9.451 149.679 26.79 3.876 1.455 8.202-.508 9.656-4.387 1.456-3.878-.509-8.202-4.387-9.657-47.855-17.958-101.417-24.526-154.895-24.72-31.66-.114-63.331-.028-94.047 6.278-20.391 4.186-40.226 9.754-59.264 16.632l-94.32-34.273c-3.893-1.414-8.196.595-9.61 4.489-1.414 3.893.596 8.196 4.489 9.61l222.089 80.669-220.821 38.647c-4.08.714-6.809 4.601-6.095 8.681s4.596 6.806 8.681 6.095l246.528-43.145 246.618 89.579c.846.307 1.71.453 2.56.453 3.065 0 5.943-1.894 7.051-4.941 1.414-3.894-.596-8.197-4.489-9.611zm-54.532-109.994c14.253 7.619 27.853 16.136 40.55 25.391l-20.565 20.565-95.036-32.822zm-445.024 32.078c-2.248 0-4.47-1.006-5.947-2.924-2.527-3.282-1.916-7.991 1.366-10.518 18.649-14.363 39.273-27.121 61.298-37.918 3.718-1.822 8.212-.287 10.036 3.433 1.823 3.719.286 8.212-3.433 10.036-21.126 10.357-40.892 22.582-58.749 36.333-1.363 1.05-2.973 1.558-4.571 1.558z"/></g></svg>