<svg id="HEALTH_SKIN_BARRIER" enable-background="new 0 0 64 64" height="512" viewBox="0 0 64 64" width="512" xmlns="http://www.w3.org/2000/svg"><path d="m47.2216797 46.1884766c.4142456 0 .75-.3358154.75-.75v-3.2070313h3.2070313c.4142456 0 .75-.3358154.75-.75 0-.4142456-.3357544-.75-.75-.75h-3.2070313v-3.2070313c0-.4142456-.3357544-.75-.75-.75-.4141846 0-.75.3357544-.75.75v3.2070313h-3.2070313c-.4141846 0-.75.3357544-.75.75 0 .4141846.3358154.75.75.75h3.2070313v3.2070313c0 .4141845.3358154.75.75.75z"/><path d="m59.727356 51.9925537c-1.5374146-.7419434-2.8618164-1.8549194-3.3632813-3.4866333l-.6570435-2.1377563c-.0966797-.3144531-.3876953-.5292969-.7167969-.5292969s-.6201172.2148438-.7167969.5292969l-.6570435 2.1378784c-.5014038 1.6314697-1.8254395 2.7444458-3.3624268 3.4865723-.2592163.1251831-.4248657.3876343-.4248657.6763306 0 .265625.1403198.510437.3665161.6442261.3586426.2120972.7056274.4404907 1.0379639.6835327-1.2155151.894043-2.555542 1.6615601-4.0119019 2.2738037-13.4287109-5.6347656-12.2548828-20.8896484-11.8291016-24.2041016 2.5305176-.0447388 4.9160767-.3510132 7.109314-.9125366.4078979-.1044312.6420898-.5341797.5253296-.9387817l-.0007324-.0025635c-.1125488-.3900146-.5093994-.6109009-.90271-.5101929-.7356567.1883545-1.5029907.3348999-2.2839355.4623413-.0164185-.0696411-.0313721-.1399536-.0689697-.2050781l-2.8638915-4.9595948 3.6088867-6.25h7.2233887l3.6074219 6.25-2.1137695 3.6625977c-1.0359497-.4462891-1.5724487-.798645-1.5864258-.8081055-.2539063-.1748047-.5898438-.1757813-.8447266-.0029297-.0075684.0050049-.659668.4385986-1.9242554.9536743-.3710327.1511841-.5599365.5718994-.4232788.9484863l.0005493.0015869c.1455688.401123.6021118.5969238.9973145.4358521.8154907-.3325195 1.4056396-.6377563 1.7666626-.8415527 1.2353516.7070313 5.1513672 2.5996094 11.8261719 2.7167969.2333374 1.9580078.7123413 8.2539063-1.7728882 14.159668-.1575317.3743896-.0015869.8052368.3671875.9755249.3827515.1768799.8469849.0048828 1.0109863-.383606 3.1508789-7.4634399 1.8469849-15.28479 1.788269-15.6236572-.0625-.359375-.3740234-.6220703-.7392578-.6220703-4.0171509 0-7.0351563-.6845703-9.0479736-1.3666382l2.2110596-3.8306275c.1337891-.2324219.1337891-.5175781 0-.75l-4.0410156-7c-.1337891-.2324219-.381836-.375-.6494141-.375h-7.6560059l-3.8254395-6.625c-.1339722-.2320557-.3815918-.375-.6495361-.375h-8.0823975c-.2678833 0-.5154419.1428833-.649353.3748779l-3.8250121 6.6251221h-7.6555176c-.2680664 0-.515625.1425781-.6494141.375l-4.0415039 7c-.1342773.2324219-.1342773.5175781 0 .75l3.8250122 6.625-3.8250122 6.625c-.1342773.2324219-.1342773.5175781 0 .75l4.0415039 7c.1337891.2324219.3813477.375.6494141.375h7.6554565l3.8250122 6.625c.1339722.2320557.3815918.375.6495361.375h2.7718506c.4141846 0 .75-.3358154.75-.75 0-.4142456-.3358154-.75-.75-.75h-2.3388672l-3.6083984-6.25 3.6083984-6.25h5.5928345c.3909912 3.0707397 1.296936 6.5611572 3.2019043 9.7664795l-1.5779419 2.7335205h-1.8779297c-.4141846 0-.75.3357544-.75.75 0 .4141846.3358154.75.75.75h2.3104248c.2679443 0 .515564-.1429443.6495361-.375l1.4110107-2.4440308c1.9748535 2.7660522 4.8039551 5.2174072 8.8399658 6.8463745.0898438.0361328.1845703.0546875.2802734.0546875s.1904297-.0185547.2802734-.0546875c1.7907715-.7227173 3.4249268-1.6633911 4.8883057-2.7789307.6049194.6351929 1.083252 1.3696289 1.3504639 2.2390747l.5327148 1.7332153c.0966799.3144533.3876955.529297.7167971.529297s.6201172-.2148438.7167969-.5292969l.5326538-1.7330933c.543457-1.7681885 1.9536133-2.9830322 3.5460205-3.9243164.2263184-.1337891.3666382-.3786621.3666382-.6443481 0-.2887573-.1657105-.5512085-.4249878-.6763916zm-43.4656372-33.2425537h7.2224121l1.0285645 1.78125c.2070923.3586426.6657715.4815063 1.0244141.2744141h.000061c.3586426-.2070923.4815063-.6657715.2744141-1.0244141l-1.0283815-1.78125 3.6083984-6.25h7.2167969l3.6083985 6.25-3.6083984 6.25h-7.2167969l-1.0800781-1.8709717c-.2070923-.3587036-.6657715-.4816284-1.0244751-.2744751-.3586426.2070923-.4815063.6656494-.2744751 1.024353l1.0800171 1.8710327-3.6085206 6.2500611h-7.2223511l-3.6083984-6.25zm7.222351 26.5h-7.2223511l-3.6083984-6.25 3.6082153-6.25h7.2225342l3.6085205 6.25zm10.520813-14.0566406c-.0131226.0764771-.4981689 3.0529785-.1759033 7.0566406h-5.4373779l-3.6083985-6.25 3.6083984-6.25h7.2167969l2.6732178 4.6298218c-1.1419067.123291-2.3197632.1924438-3.5374756.1924438-.3642578 0-.6757812.2617188-.7392578.6210938zm20.9853516 25.1259765c-.6074219-1.4726563-1.6289063-2.7412109-2.9296875-3.6503906 1.3007813-.9082031 2.3222656-2.1767578 2.9296875-3.6494141.6074219 1.4726563 1.6298828 2.7412109 2.9296875 3.6494141-1.2998047.9091797-2.3222656 2.1777344-2.9296875 3.6503906z"/><path d="m9.7265625 18.1259766.5205078-1.6923828c.640625-2.0820313 2.1333008-3.8154297 4.0961914-4.7578125.2602539-.1240235.4257813-.3876954.4257813-.6757813s-.1655273-.5517578-.4257813-.6757813c-1.9628906-.9423828-3.4555664-2.6757813-4.0961914-4.7578125l-.5205078-1.6923828c-.0966797-.3144531-.3876953-.5292968-.7167969-.5292968s-.6201172.2148437-.7167968.5292968l-.5205079 1.6923829c-.6411133 2.0820313-2.1342773 3.8164063-4.0966797 4.7578125-.2602539.1240234-.4257812.3876953-.4257812.6757812s.1655273.5517578.4257813.6757813c1.9624023.9414063 3.4555664 2.6757813 4.0966797 4.7578125l.5205078 1.6923828c.0966797.3144531.3876953.5292969.7167969.5292969s.6201171-.2148438.7167968-.5292969zm-4.2231445-7.1259766c1.5883789-1.0732422 2.8203125-2.6201172 3.5063477-4.4208984.6855468 1.8007812 1.9174804 3.3476562 3.5058593 4.4208984-1.5883789 1.0732422-2.8203125 2.6201172-3.5058594 4.4208984-.6860351-1.8007812-1.9179687-3.3476562-3.5063476-4.4208984z"/><path d="m14.019043 51.5908203c-2.5253906 0-4.5795898 2.0537109-4.5795898 4.5791016s2.0541991 4.5800781 4.5795898 4.5800781 4.5800781-2.0546875 4.5800781-4.5800781-2.0546875-4.5791016-4.5800781-4.5791016zm0 7.6591797c-1.6982422 0-3.0795898-1.3818359-3.0795898-3.0800781s1.3813477-3.0791016 3.0795898-3.0791016 3.0800781 1.3808594 3.0800781 3.0791016-1.3818359 3.0800781-3.0800781 3.0800781z"/><path d="m57.2958984 13.9501953c1.9042969 0 3.4541016-1.5498047 3.4541016-3.4541016 0-1.9052734-1.5498047-3.4550781-3.4541016-3.4550781-1.9052734 0-3.4550781 1.5498047-3.4550781 3.4550781 0 1.9042969 1.5498047 3.4541016 3.4550781 3.4541016zm0-5.4091797c1.0771484 0 1.9541016.8769531 1.9541016 1.9550781 0 1.0771484-.8769531 1.9541016-1.9541016 1.9541016-1.078125 0-1.9550781-.8769531-1.9550781-1.9541016 0-1.0781249.8769531-1.9550781 1.9550781-1.9550781z"/></svg>