<?xml version="1.0" encoding="UTF-8" standalone="no"?>
<!-- Created with Inkscape (http://www.inkscape.org/) -->

<svg
   version="1.1"
   id="svg2"
   width="2660.5811"
   height="115.78406"
   viewBox="0 0 2660.5811 115.78406"
   sodipodi:docname="25951538_x484.eps"
   xmlns:inkscape="http://www.inkscape.org/namespaces/inkscape"
   xmlns:sodipodi="http://sodipodi.sourceforge.net/DTD/sodipodi-0.dtd"
   xmlns="http://www.w3.org/2000/svg"
   xmlns:svg="http://www.w3.org/2000/svg">
  <defs
     id="defs6" />
  <sodipodi:namedview
     id="namedview4"
     pagecolor="#ffffff"
     bordercolor="#999999"
     borderopacity="1"
     inkscape:showpageshadow="0"
     inkscape:pageopacity="0"
     inkscape:pagecheckerboard="0"
     inkscape:deskcolor="#d1d1d1"
     showgrid="false" />
  <g
     id="g10"
     inkscape:groupmode="layer"
     inkscape:label="Page 1"
     transform="matrix(1.3333333,0,0,-1.3333333,-4495.5054,4186.4133)">
    <g
       id="g12"
       transform="scale(0.1)">
      <path
         d="M 0,40000 H 60000 V 0 H 0 v 40000"
         style="fill:#ffffff;fill-opacity:1;fill-rule:nonzero;stroke:none"
         id="path14" />
      <path
         d="m 44225,4997 c 115.7,64.5 218.7,121.8 342.6,190.8 -185.9,-7.8 -297.9,-69.9 -342.6,-190.8 z m -9629.1,730.3 c -41.9,-122.2 -74.2,-216.6 -111.5,-325.3 222.1,93 238.6,134.1 111.5,325.3 z m 13791.3,-473.2 c -290.2,-7.2 -493.9,-152.2 -564.8,-404.7 205.5,119.8 473.5,119.8 564.8,404.7 z M 42389,4779.7 c -219.6,-150.3 -431,-280.7 -624.4,-433.6 -110.8,-87.6 -212.2,-117.8 -325.5,-15.9 -101.1,90.9 -16.7,182.2 32,259 57.8,91.1 133.9,170.5 202,255.1 -10,13.1 -20.1,26.4 -30.2,39.5 -285.1,-165.8 -570.1,-331.4 -854.8,-497.7 -32.7,-18.9 -62.2,-43.1 -94.8,-61.5 -102.8,-58.1 -212.7,-54.9 -266.4,49.2 -32.1,61.9 2.8,158.1 10.1,281.8 -124.9,146.8 48.6,293.4 87.4,486.9 -193.5,-88.1 -393.3,-165 -578.7,-267.7 -144.6,-80.1 -266.7,-199.9 -407.8,-287.5 -74.3,-46.3 -168.9,-88.6 -252.5,-85.6 -200.6,7.5 -261.1,137.8 -163.1,312.7 9,16 13.5,34.5 24.6,63.5 -32.2,-1.6 -57.9,3.9 -77,-5 -249.1,-115.3 -493.4,-242.4 -748.2,-343.3 -72.6,-28.8 -177.6,9.2 -260.7,37.5 -12.6,4.3 -5.1,133.4 25.4,185.7 77.4,132 173.3,253 261.6,378.5 -7.9,13.4 -16.1,27 -24,40.5 -231.1,-135.2 -470.8,-258.2 -690,-410.9 -108.2,-75.3 -187.2,-133.8 -337.3,-142.9 -197.9,-11.8 -388.6,-127.4 -584.6,-192 -112.4,-37 -227.6,-72.8 -344.1,-85.5 -48.3,-5.3 -144.2,47.3 -147.1,79.8 -5.9,65.8 35.7,136.6 60.8,204.1 6.1,16.3 24.7,27.9 43.6,48.1 -69,39.9 -132.3,76.7 -198.3,114.9 -220.5,-128.3 -377.7,-83 -412.5,121.7 -139,-105.8 -187.4,-109.2 -341.4,31.6 -89.2,81.9 -137.1,50.6 -204,-18.8 -31,-32.2 -106.5,-71.2 -124.5,-57.7 -129.9,98.1 -195.4,-3.7 -263.3,-78.4 -131.6,-144.7 -161,-165.7 -301.2,-38.6 -120.6,109.4 -193.6,70.6 -284,-18.1 -76.1,-74.8 -153.4,-104.2 -257.1,-32.4 -84.5,58.6 -104.7,117 -60.2,205.8 86.9,173.3 172.5,347.4 257.6,521.6 12.2,24.9 19.2,52.2 36.2,98.7 -90.8,-60.5 -162.6,-106 -231.4,-155.4 -31.1,-22.6 -82.4,-55 -80.6,-79.6 20.8,-274.2 -277.6,-282 -374.8,-456.1 -19.8,-35.4 -58.5,-61.1 -90.6,-88.9 -88.6,-76.9 -224,-74.6 -311.4,15.3 -77.7,79.7 -38.3,150.8 9.6,243.2 153.7,295.4 448.5,435.9 673.5,651.5 59.6,57 129.8,103.2 188,161.3 179.7,179.5 394.1,256.4 636.7,180.6 109.7,-34.3 212.3,-114.8 297.8,-196 61.4,-58.1 108.9,-75.9 189.8,-61 170.5,31.5 343.1,64.1 515.5,68.2 88.3,2.2 177.6,-57.9 267.3,-87 42.3,-13.6 89.8,-36.5 129.4,-28.2 116.8,24.2 231.1,60.6 345.9,94.6 118.8,35.2 319,-49 390.5,-168.8 22.2,-37.1 37.9,-77.9 60.6,-125.5 93.7,38.1 184.7,69.4 270.5,111.5 178.6,87.3 369,55.3 517.1,-95 50.7,-51.6 99.1,-105.4 146.9,-156.6 179.1,86.6 352.3,173 527.9,254.7 330.6,154.1 576.4,-31.1 621.1,-330.7 2.1,-14.1 6.6,-27.9 12.3,-51.8 217,94.6 432,185.6 644.6,281.8 189.3,85.5 362.2,33 518.7,-71 71.6,-47.7 122.7,-42.7 197.5,-24.4 209.5,51 422.1,89.1 633.6,131.3 38.1,7.7 83.8,-0.8 114.6,17.4 176.4,104.1 328.4,74.5 473.5,-63.3 21.5,-20.3 80.7,-13.5 117.7,-2.8 157.9,45.9 316.7,91.2 470.1,149.7 141.8,54.1 221,-27.6 299,-116.7 74,-84.8 33.1,-157.7 -30,-230 -26.2,-30 -36.7,-73.6 -65.2,-134.1 187.4,81.7 351.7,156.3 518.2,225.4 134.4,55.5 270.2,107.8 408,153.6 37.4,12.4 94.7,10.7 125.3,-10.3 205.6,-140.5 410.1,-100.8 611.3,0 121.7,61.1 228.7,96 339.7,-21.2 22.9,-24.2 89.3,-24.8 128.8,-13 212.3,63.5 413.7,80.4 616.3,-46.7 47.6,-29.8 149.8,-1.4 213,29 101.6,49 193.2,87.5 314.1,74.1 89.1,-9.9 187.6,28.3 276.6,59.9 166,59 328.3,19 462,-57.8 128.8,-74.1 226.8,-34.3 342.8,-5 148.5,37.6 310.9,113.5 447.3,83.2 198.9,-44.1 389.1,-58.6 590.2,-71.6 204.6,-13.2 401.2,-80.2 611.3,-12.1 213.7,69.4 326.9,-79.4 434.3,-226 19,-25.9 30.7,-57.4 50,-94.3 321.8,109.9 640.3,220.3 960.3,326.4 47.7,15.8 128.7,35.8 148.6,13.4 106.8,-120.5 223.2,-75.3 326.2,-21.1 130.4,68.6 221.3,35 317.5,-58.1 26.8,-25.7 91.6,-35.2 128.9,-22.5 113.8,39.1 231.2,79.3 331.2,144.1 120.6,78.2 204.4,38.1 297,-39.4 26.8,-22.5 88.6,-46.4 103.6,-33.5 162.8,139.2 305.1,36.1 428.4,-49.7 112.5,-78.4 189.9,-45.7 284.5,11.8 70.7,43.2 142.9,116.1 232.5,31.4 79.1,-74.8 188.1,-135.9 98.8,-312.8 203.3,109.9 369.7,194.1 530.3,288.3 238.6,140.2 236.6,143.2 372.6,-93.6 6.7,-11.6 20.4,-19.1 33.1,-30.6 145.9,120.6 282.9,251.2 436.8,357.3 255.1,175.8 558,32.9 569.3,-269.1 2.7,-72.1 -59.5,-150.2 -102,-219.4 -72.6,-118.1 -154.7,-230.5 -230.1,-347 -57.8,-89.3 -110,-217.9 -235.5,-166 -85.5,35.3 -140.9,143.6 -221.1,231.5 -114.9,-130 -253.5,-286.8 -405.6,-459 -64.6,9.6 -157.1,24.5 -249.9,36.9 -156.8,21 -214.5,134.2 -130.6,271.3 49,80 110.5,152.4 152.9,241.7 -259.8,-135.7 -568.4,-203 -676.1,-533 -32.5,-99.4 -107.9,-125.5 -208.1,-81.5 -76.2,33.4 -157,56.2 -235,86.1 -83.9,32.3 -130.6,90.8 -111.4,184.6 14.1,69.1 34.4,136.9 56.5,222.6 -143.8,-55.6 -195.3,-168.4 -242.3,-281.7 -31.3,-75.3 -81.4,-141.2 -160,-119.5 -64.5,17.8 -117.4,82.1 -171.9,129.9 -16.6,14.5 -21.6,42.4 -18,34.7 -128.1,-31.2 -251.2,-51.8 -367.3,-92.3 -84.3,-29.5 -172,-72.4 -236.1,-132.7 -100.8,-95.1 -197.7,-69.4 -265.7,9.7 -47.6,55.5 -79.3,54.6 -138.8,51 -172.5,-10.8 -280.5,134.2 -225.3,297.4 18.4,54.4 44.5,107.4 74.7,156.1 30.1,48.6 69.9,91.5 105.6,136.8 -7.5,12.4 -14.8,24.9 -22.3,37.3 -105.7,-67.5 -228.8,-118.1 -313.5,-205.6 -189.5,-195.6 -407.8,-339.3 -657.6,-439.1 -231,-92.2 -426.4,50.4 -394.6,327.5 -187.4,-120.9 -360.6,-221.3 -520.2,-339.9 -95.4,-70.9 -177.4,-78.5 -257.3,-1.4 -65.5,63.3 -120.1,66.3 -188.5,13 -45.9,-35.7 -96.8,-64.9 -143.7,-99.2 -135.3,-99.5 -198.1,-91.3 -307,33.7 -21.9,25 -65.1,53.5 -92.3,48.3 -170.1,-33.2 -282,21.2 -322.2,207 -135,-44.1 -259,-96.4 -388.3,-123.4 -144.3,-30.3 -261.4,40.9 -349.3,134.3 -194,-59.8 -380.6,-120.3 -569.2,-173.9 -49.7,-14 -106.3,-13.1 -158.5,-7.5 -116.6,12.7 -236.3,19.6 -346.9,54.2 -74.6,23.4 -135.6,89.9 -215.9,146.5 83.6,93.3 149.8,167.5 216.4,241.7 -6.5,7.5 -12.8,14.8 -19.3,22.3 -103.8,-90.9 -199,-194.5 -313.1,-269.6 -160,-105.4 -325,-219.2 -504.8,-273.8 -153.1,-46.5 -331.1,-27.3 -496,-13.5 -151.2,12.7 -212.5,113.7 -198.5,278.6 -91,-58.5 -174.3,-149.6 -269,-163.8 -133.5,-20.1 -215.5,66.5 -171.4,238.6 -119.7,-72 -220.5,-130.5 -319,-192.2 -193.1,-120.9 -286.3,-91.6 -395,170.9 v 0"
         style="fill:#231f20;fill-opacity:1;fill-rule:nonzero;stroke:none"
         id="path16" />
      <path
         d="m 53602,26102.3 c -227.2,-19.7 -426.8,-42.7 -626.9,-53.1 -381.9,-19.6 -764.1,-41.4 -1146.3,-45.2 -635.1,-6.2 -1270.2,-2.2 -1905.2,4.4 -396.4,4.1 -792.7,24.1 -1189.2,31 -411.2,7.2 -822.6,1.5 -1233.5,12.3 -314.7,8.2 -628.9,42.2 -943.7,48.3 -344,6.7 -688.5,-8.2 -1032.9,-8.8 -381.4,-0.7 -762.9,1.1 -1144.3,7.2 -425.6,6.7 -851.5,32 -1276.9,26.3 -675.6,-8.9 -1350.8,-46.3 -2026.3,-53.1 -440.6,-4.5 -883,6 -1322.1,41.8 -542.6,44.3 -1081.9,128.9 -1623.9,182 -229.8,22.5 -463.2,8.4 -694.9,12.8 -523.1,9.8 -1046.1,25.1 -1569.2,29.2 -237,2 -474.4,-26.2 -711.3,-23.6 -160.2,1.7 -321.1,53.3 -480.1,46.3 -182.3,-8.1 -362.2,-62.6 -544.6,-84 -72.9,-8.5 -160.3,-1.5 -222.9,32.2 -124.9,67.6 -181.7,191.4 -151.1,329.9 9.6,42.9 88.1,83.2 142.7,101 173.4,56.4 349.9,103.5 526.1,150.2 82.8,21.9 167.3,44.5 252.1,49.8 227.3,14.5 455.1,24.3 682.8,26.9 134.2,1.6 271.2,-0.2 402.5,-24.2 327.8,-59.8 651.9,-38.6 978,10.6 402.6,60.9 806.6,113.5 1210.1,168.3 349.9,47.6 699,112.4 1050.6,132.8 259.4,15.1 522,-30.8 783.5,-46.5 861.6,-51.8 1719.8,-67.9 2579.1,73.2 348.3,57.2 714,31.4 1070.2,12.1 667.6,-36.5 1335.7,-80.8 2000.6,-149.7 681.8,-70.8 1361.3,-166.2 2039.5,-266.6 842.6,-124.7 1688.9,-153.6 2538.6,-145.4 237.5,2.3 475,-25.1 712.6,-25 345,0.2 689.8,13.5 1034.8,20.5 278.1,5.4 556.3,10.7 834.5,13.1 36.2,0.3 87.2,-4.9 106.2,-28 121.2,-147.2 289.5,-134.5 452.3,-147.9 72.2,-6 145.5,-16.6 214.6,-37.9 207.3,-63.6 337.7,-229.5 233.9,-423.2 v 0"
         style="fill:#231f20;fill-opacity:1;fill-rule:nonzero;stroke:none"
         id="path18" />
      <path
         d="m 6196.82,16395 c 317.1,34 634.2,67.5 951.17,102.2 432.1,47.4 863.23,107.1 1296.3,140.4 530.41,41 1062.16,67.9 1593.81,87 725.7,26.1 1451.7,51.2 2177.8,54.1 669.5,2.6 1339.1,-28.9 2008.8,-37 391.3,-4.8 782.8,10.3 1174.2,10.3 614.1,0 1228.5,6.5 1842.2,-11.1 737.2,-21 1473.8,-69 2210.8,-96.1 440.6,-16.1 882.2,-2.7 1322.5,-22.9 502.7,-23 1004.6,-69.2 1506.9,-104.5 410.3,-28.9 820.4,-70.5 1231.1,-80.5 340.9,-8.3 681.9,37 1023,-29.1 473.1,-92 952.5,-103.2 1433.5,-90.8 239.4,6.1 481.5,5.1 718.2,-25.6 97.6,-12.7 191.7,-102.7 272.7,-174.3 51.9,-45.8 88.1,-118.3 111.4,-185.5 37.3,-108 -12.8,-154.7 -126.8,-144.3 -283.1,26.2 -566.1,60 -850,69.1 -411.9,13.2 -824.3,2.7 -1236.3,12.1 -198.4,4.4 -396,37.2 -594.4,45.2 -195.5,7.8 -392.4,-9.4 -587.5,2.8 -187.3,11.7 -373.9,69.3 -555.5,-26.5 -11.1,-5.8 -29.3,-3.6 -42.4,0.4 -420.8,130.8 -841,-1.6 -1261.4,0.7 -245.8,1.4 -491.4,26.7 -737.2,37.3 -148.3,6.4 -297.3,-0.4 -445.3,9 -246.3,15.6 -489.6,-25.3 -741.4,21.4 -271.8,50.6 -559,17.8 -839.5,22.9 -237.6,4.2 -475.9,22.1 -713,12.2 -201.3,-8.4 -401,-52.5 -602.4,-71.4 -128.6,-12.1 -258.8,-6.4 -388.2,-10.4 -560.3,-17.9 -1120.9,-26.6 -1680.3,-57.4 -689.4,-38 -1377.2,-106.4 -2066.7,-139.7 -676.6,-32.9 -1354.6,-37.4 -2032,-56.1 -435.2,-12 -870.5,-38.1 -1305.8,-38.1 -662.9,0 -1326.47,3.3 -1988.68,31.8 -471.57,20.1 -940.7,106.8 -1412.03,119.5 -291.39,7.8 -558.54,88.8 -827.28,167.5 -108.06,31.8 -196.01,149.7 -279.21,241.1 -35.2,38.6 -55.67,102.3 49.82,127.7 128.4,31 248.28,97.7 371.8,148.8 5.97,-20.8 11.69,-41.5 17.3,-62.2 v 0"
         style="fill:#231f20;fill-opacity:1;fill-rule:nonzero;stroke:none"
         id="path20" />
      <path
         d="m 5937.08,10454 c 14.25,120.7 74.8,167.6 173.59,167.6 283.12,-0.2 566.22,-9 849.34,-6.2 430.26,4.4 861.15,4.7 1290.69,27.8 338.9,18 675.98,68 1013.91,103.8 597.17,63.2 1193.99,130.7 1791.79,188.1 516.4,49.3 1033.6,88.8 1550.9,129.5 482.4,37.8 964.7,77.2 1447.8,104 390.7,21.7 782.2,26.1 1173.4,36.9 299.4,8.3 599,22.9 898.3,20.3 475.2,-4.4 950.6,-20.6 1425.8,-32.7 350.2,-8.9 700.8,-13.1 1050.8,-30.3 429.4,-21.1 858.2,-55 1287.5,-80.4 512.8,-30.6 1026.5,-50 1538.5,-89.5 362.1,-28 722.3,-80.6 1083.1,-124 182.7,-21.9 365.2,-47 547.6,-71.7 402.5,-54.6 804.3,-115.4 1207.6,-163.3 270,-31.9 542.3,-42.1 812.9,-68.5 325.5,-32 652.4,-110.2 974.8,-93.8 255.1,12.9 472.4,-81.9 706.2,-124.7 50.5,-9.2 96.1,-119.5 113.8,-190.7 6.2,-25.1 -77.6,-73.3 -121.3,-109.4 -6.4,-5.3 -20.1,-7 -28.3,-3.9 -235.8,82.6 -470.5,-28.7 -708,-2.2 -295.3,33 -593.4,40.7 -890,62.7 -51.7,3.8 -101.6,26.6 -153.2,37 -90.8,18.6 -167.1,45 -257.7,-47.3 -57.9,-58.9 -195.9,-59.5 -295.8,-52.9 -428.6,28.3 -856.7,102.3 -1284,95.3 -366.5,-6.1 -723.9,45.4 -1085.7,63.8 -211.9,10.8 -425.7,-12.4 -638.7,-20.4 -345.5,-12.7 -691,-27.7 -1036.6,-38.2 -455.6,-14.1 -911.2,-26 -1366.9,-36.8 -110.4,-2.6 -221.5,9.1 -331.5,2 -293.1,-19.4 -585.5,-50.7 -878.6,-67.9 -391.6,-22.9 -783.8,-42.5 -1175.9,-52.1 -181.4,-4.4 -363.3,23 -545.3,27.2 -366.5,8.6 -733.3,10.5 -1099.9,16.5 -400,6.6 -800.1,14.6 -1200.2,22 -387.1,7.2 -774.5,9.3 -1161.5,23 -261.1,9 -521.3,36.4 -782.1,51.7 -395.7,23 -791.2,45.6 -1187.2,63.5 -572.2,25.7 -1144.59,59.8 -1717.03,65.9 -369.6,3.8 -739.44,-40.4 -1109.54,-54.5 -172.62,-6.5 -345.97,11.3 -519.08,11.4 -331.59,0.5 -663.19,-10.9 -994.42,-2 -96.48,2.6 -197.97,45.8 -284.58,93.2 -42.99,23.3 -57.74,98.4 -85.27,150.2 v 0"
         style="fill:#231f20;fill-opacity:1;fill-rule:nonzero;stroke:none"
         id="path22" />
      <path
         d="m 9754.53,26543 c 0.97,-9.5 1.94,-18.9 2.8,-28.2 192.72,0 386.07,-10.4 578.07,1.8 689.8,43.8 1378.7,104.3 2069,141.5 769.3,41.6 1539.7,62.4 2309.5,96.6 290.6,13 583.8,18.7 870.2,63.9 271.6,42.9 326.2,39.7 468.1,-197.7 6.8,-11.5 20.9,-18.7 42.7,-37.4 68.1,95.2 133.8,187.2 223,312.1 -90.7,13.4 -152.4,31.9 -213.5,29.8 -208,-7.1 -415.7,-27.9 -623.7,-31 -239.4,-3.6 -479.2,15.4 -718.2,7.9 -328,-10.3 -655.6,-36.5 -983.4,-55.6 -666.6,-38.8 -1333.6,-73.6 -1999.9,-117.8 -476.4,-31.7 -952.2,-73.9 -1427.9,-115.8 -199.4,-17.6 -397.96,-46.4 -596.77,-70.1 z m 6800.87,-65.2 c 401.1,18.4 754,30 1106.3,52.1 508.1,31.9 1016.1,67.2 1523.5,109.6 221.1,18.5 439.6,66.4 660.7,86.1 284.6,25.4 570.4,44.6 855.9,50.6 366.4,7.5 732.9,2.8 1099.4,-3.3 719.1,-11.9 1438.2,-25.5 2157.1,-44.6 312,-8.3 623.5,-42.8 935.4,-45.7 288.3,-2.5 577.1,35.3 865.2,29.4 320.1,-6.7 641.7,-26.7 949.4,-135.1 128,-45.1 231.1,-162 199.8,-262.5 -36.7,-118 -109.5,-186.2 -258,-174.8 -407,31.1 -815.3,45.8 -1223.3,64 -249.8,11.1 -499.7,19.2 -749.7,23.9 -324.2,6.2 -648.3,7.8 -972.6,11.8 -19.1,0.3 -38.4,8.2 -57.5,8.1 -505.7,-4.8 -1011.6,-3.9 -1517.1,-17.1 -551.9,-14.2 -1103.7,-42.8 -1655.5,-62.5 -518.2,-18.5 -1036.6,-35.9 -1555,-49.7 -318.4,-8.4 -637.2,-0.4 -955.1,-15.1 -555.9,-25.7 -1110.9,-66.6 -1666.7,-93.4 -139.3,-6.7 -282.2,4.5 -419.6,29.1 -188.4,33.6 -292.4,159.2 -302.9,372.4 -202.6,-13.9 -393.7,-31 -585.1,-39 -335.8,-14.1 -671.9,-20.2 -1007.8,-33.9 -397.9,-16.3 -795.6,-36.8 -1193.4,-56.1 -797.4,-38.9 -1594.7,-80.3 -2392.3,-116.7 -540.25,-24.6 -1080.89,-40.7 -1621.17,-64 -568.66,-24.6 -1137.32,-49 -1705.49,-81.8 -254.61,-14.8 -508.36,-47.4 -761.99,-76.6 -148.87,-17.1 -378.13,138.8 -404.32,285.5 -15.96,89.1 8.52,144.3 106.47,184.7 502.27,206.8 1039.13,238.1 1566.01,302.2 749.2,91.2 1503.51,140.8 2255.14,213.1 553.95,53.3 1106.75,118.9 1660.75,170.6 333.3,31.2 668.2,46.6 1002.4,68.9 600.1,39.9 1199.9,83.4 1800.3,118.1 313.8,18.2 628.7,18.3 942.8,31.3 374.9,15.6 749.6,32.9 1124.1,56.2 166.1,10.2 281.3,-76.6 370.8,-227.8 120.7,-203.7 -5.6,-345.3 -83.7,-504 -20.3,-41.2 -45.3,-80.3 -93.2,-164 v 0"
         style="fill:#231f20;fill-opacity:1;fill-rule:nonzero;stroke:none"
         id="path24" />
      <path
         d="m 26769.7,31255.3 c 56.1,-163.5 18.5,-243.7 -142.9,-262.3 176.4,-94.4 433.9,-62.1 411,-369.2 -52.5,5.1 -101.8,6.1 -149.7,15.1 -354.7,66.9 -703.3,172.6 -1074.1,100.9 -113.2,-22 -239.4,33 -357.5,24.1 -292.4,-22.1 -583.1,-67.3 -875.4,-90 -185.6,-14.5 -373.2,-10.9 -559.6,-6.1 -378.2,9.5 -756.2,27.7 -1134.5,37.7 -542.4,14.3 -1085.3,20.7 -1627.6,37.9 -269.1,8.5 -537.7,43.4 -806.9,48.2 -312.8,5.7 -626,-12.6 -938.9,-12.7 -162.1,0 -324,18.2 -486,25.3 -510.9,22.2 -1020.5,22.5 -1527.6,-63.1 -108.7,-18.4 -222.9,-2.6 -334.7,-3.9 -540.5,-6.3 -1080.9,-14.8 -1621.3,-19.3 -307.8,-2.5 -615.9,1.6 -923.7,1.1 -383.2,-0.6 -766.3,-5.1 -1149.3,-3.5 -308,1.4 -616,17.9 -923.8,12.3 -407,-7.5 -813.5,-35.8 -1220.5,-45.3 -660.4,-15.5 -1321.1,-18.8 -1981.53,-35.3 -413.71,-10.4 -827.04,-39.4 -1240.75,-53.1 -222.93,-7.5 -446.71,8.8 -669.4,-1.9 -348.65,-16.9 -696.33,-54.7 -1045.1,-69.4 -158.86,-6.8 -320.03,13.4 -478.39,34.9 -77.97,10.7 -160.32,61 -132.42,155.5 20.46,69.3 82.35,127.4 130.34,186.7 13.17,16.2 43.01,18.9 63.84,27.2 -13.76,204.1 105.25,265.8 304.06,237.9 207.35,-29.1 423.82,3.7 636.16,14.5 507.25,26 1014.16,59.9 1521.54,81.3 531.5,22.4 1063.49,37.5 1595.35,49.2 382.8,8.4 765.8,0.8 1148.4,10.1 507.6,12.3 1014.9,37.5 1522.7,50.4 598.7,15.3 1197.8,38 1796.4,30.5 689.2,-8.8 1377.7,-55.7 2066.7,-69.7 373.2,-7.7 746.9,23.8 1120.5,28.3 334.1,4 668.2,-4.8 1002.4,-7.8 671.3,-6.1 1342.7,-17.6 2013.9,-16.2 464.7,0.8 929.2,22 1393.8,28.7 195.3,2.8 390.8,-14.2 586.2,-10.6 187.2,3.4 375.9,10.3 561.1,36.5 296.4,41.7 581.1,-5.3 873.2,-49.8 322.7,-48.9 654.3,-40 982.1,-54.8 129,-5.8 258.5,-14.3 387.3,-10 269.2,9.4 538.2,37.2 807.2,36.8 165.2,-0.2 330.1,-38.3 477.4,-57.1 v 0"
         style="fill:#231f20;fill-opacity:1;fill-rule:nonzero;stroke:none"
         id="path26" />
      <path
         d="m 18427.9,21415.2 c -278.4,13.7 -556.5,33.9 -834.9,39.4 -395.9,7.9 -791.9,7 -1188,6.4 -375.5,-0.6 -751.6,-19.1 -1126.6,-5.6 -419.5,15.2 -837.8,60.8 -1257,87.1 -338.5,21.3 -677.4,39.4 -1016.3,48.5 -496.3,13.5 -992.7,19 -1489.1,25.7 -530.9,7.1 -1061.9,19 -1592.68,15.4 -615.68,-4.4 -1231.37,-19.8 -1846.81,-37.2 -433.68,-12.3 -867,-35.2 -1300.44,-55.1 -138.14,-6.3 -264.47,-44.5 -413.21,29.2 -102.94,50.9 -263.38,-13.2 -397.99,-27.3 -112.68,-11.8 -291.28,114.8 -310.77,222 -14.37,78.7 95.51,202.3 169.45,173.5 234.76,-91 458.05,7 683.91,30.2 677.93,70 1353.07,171.3 2032.22,224.7 590.34,46.3 1184.46,45.5 1777.02,62.5 665.8,19.1 1331.7,48.8 1997.6,48 729.3,-1 1458.6,-34.5 2187.9,-47.9 318.6,-5.9 637.6,11.2 956,2.5 294.6,-7.9 588.7,-37.5 883,-55.3 426.4,-25.8 853.2,-44.9 1279.2,-75.7 531.3,-38.4 1061.7,-88.1 1592.7,-128.9 488.2,-37.5 976.3,-75.9 1465,-102 342.7,-18.4 687.6,-0.8 1029.2,-28.1 420.6,-33.6 838.6,-98.9 1258.1,-147.4 337,-39 674.9,-70.9 1011.8,-110.8 302.8,-35.8 606.5,-69.4 906.9,-120.2 303.8,-51.3 604.4,-20.2 904.8,9.4 424.5,41.8 847.1,52.6 1264.9,-44.2 45.5,-10.6 87.4,-85.2 105.7,-138.8 6.6,-19.2 -56.6,-76.7 -97.6,-93.2 -34.9,-14.1 -84.6,14.3 -125.8,8.7 -103.9,-14 -213.4,-19.8 -308.3,-58.9 -210.8,-86.7 -427.4,-80.7 -647.2,-79.4 -378.5,2.3 -757.2,-7.3 -1135.7,-1.2 -158.4,2.5 -316,38.1 -474.6,48.9 -465.5,31.8 -931.1,65.2 -1397.2,85.3 -316.5,13.7 -634,-0.3 -950.8,9.4 -487,14.9 -974.1,34.6 -1460.6,61.2 -692.3,38 -1384.1,84 -2076.2,126.5 -19.1,1.2 -38.4,0.1 -57.6,0.1 0.1,-2.4 0,-4.8 0,-7.4 v 0"
         style="fill:#231f20;fill-opacity:1;fill-rule:nonzero;stroke:none"
         id="path28" />
      <path
         d="m 26815.3,4905.3 c 12.6,-177.4 -34.2,-212.4 -179.4,-215.4 -333.2,-6.8 -666.1,-30 -999.2,-46.1 -27.6,-1.3 -56.5,-5.5 -82.8,0.9 -321,75.9 -628.7,-38.3 -942.3,-69.5 -122.9,-12.3 -247.2,-11.7 -369.2,-29.4 -73.8,-10.9 -143.6,-50.1 -217,-68.5 -48.7,-12.3 -100.7,-9.3 -151.2,-14.4 -372.7,-37.7 -745,-78.7 -1118,-112.4 -167,-15 -338.8,5.1 -502.3,-26.4 -415,-80 -754.7,133.1 -1113.2,283.4 -106.8,44.7 -222.5,65.6 -333.4,99.6 -25,7.6 -46.1,28.7 -71,37.6 -99.6,35.4 -198.7,91.9 -300.2,98.3 -494.5,30.8 -989.7,61.2 -1484.7,64.5 -251.4,1.7 -502.8,-59.5 -755,-82.3 -199.7,-17.8 -400.7,-21.7 -601.2,-29.5 -323.8,-12.8 -647.8,-24.8 -971.7,-35.5 -264.1,-8.7 -486.6,113.6 -679,282.1 -242.2,212.2 -490.8,356.6 -822.8,338.7 -324.1,-17.5 -651.3,28.7 -975.9,15.7 -329.5,-13.3 -657,-72.1 -986.4,-97.8 -260.5,-20.4 -522.6,-23.7 -784,-29.4 -318.1,-6.9 -637,3.8 -954.4,-15.1 -490.6,-29.1 -980.1,-77.8 -1470.21,-116.5 -365.18,-28.6 -731.17,-48.6 -1095.67,-83.8 -251.27,-24.1 -500.24,-74.6 -751.28,-100.7 -263.63,-27.6 -528.43,-44.1 -792.99,-57.8 -352.94,-18 -706.22,-26.9 -1059.17,-43.1 -138.52,-6.4 -306.04,243.2 -245.49,375.1 38.01,83 86.18,133 185.54,79.8 45.16,-24.1 106.4,-21.6 160.23,-20.1 334.11,9 668.92,11.1 1002.1,35.1 313.65,22.6 625.47,73.9 938.66,104 205.31,19.6 411.87,23 617.86,34.7 666.6,38 1334.32,60.5 1999.32,119 626.6,55.3 1249.7,154.9 1875.5,223.3 439,48 879.9,78.5 1320.2,112.7 353.5,27.7 707.2,62.3 1061.2,67 151.5,2.1 302.7,-69.8 455.9,-96.9 106.7,-18.9 216.7,-28.2 324.8,-25.1 158.1,4.3 268.6,-79.5 373.3,-187.5 137.4,-141.6 297.7,-249 490.8,-268 475.5,-46.7 951.5,-100.2 1428.3,-115.5 366.5,-11.7 734.7,44.9 1102.2,44.7 357.2,-0.1 715.6,-21.9 1071.2,-58.8 150.3,-15.6 292.5,-103.7 442.2,-142.1 217.6,-55.8 437.3,-123.1 658.7,-136.3 236.2,-14 475.4,37.4 713.7,45.2 325.9,10.8 652.4,13.4 978.5,8.6 357.7,-5.2 715.3,-23.8 1073,-34.4 255.6,-7.7 511.4,-12.7 767.2,-16.1 40.3,-0.6 87.6,1.3 120,22.2 140.4,89.9 293.2,51.5 442,63.2 119.4,9.2 236.4,57.4 355.5,63.3 167.5,8.2 336.2,-2.6 503.9,-13.6 69.8,-4.5 138,-33.3 207.8,-45.5 111.6,-19.8 158.2,-86 139.5,-185.2 v 0"
         style="fill:#231f20;fill-opacity:1;fill-rule:nonzero;stroke:none"
         id="path30" />
      <path
         d="m 43844.1,16237.4 c -292.7,4.9 -585.5,5.4 -877.9,15.9 -343.5,12.3 -686.7,41.7 -1030.2,48.2 -341.2,6.3 -682.7,-11.6 -1024.2,-9.9 -259.3,1.3 -518.6,23.5 -777.8,23.9 -792.1,1.2 -1584.2,0.9 -2376.1,-8.6 -314.2,-3.7 -628.1,-48.8 -941.9,-46.8 -449.1,2.7 -897.7,39 -1346.9,47 -495.8,8.9 -993.7,43.1 -1486,-52.5 -123.5,-24 -167.7,42.8 -209.4,141.9 -43.5,104.1 22.5,119 83.8,173.7 73.9,65.9 124.6,80.1 211.2,44.5 40.7,-16.8 105.3,-17.8 141.6,3.8 206.6,122.4 444.1,63.6 664.8,114.2 291.5,66.9 605.7,29.9 909.3,50.5 366.3,24.8 731,70.1 1097.3,92.9 187.2,11.6 376.2,-6.3 564.3,-12.4 309.8,-10 619.8,-16.5 929.3,-33.3 392.2,-21.5 783.9,-53.2 1175.8,-78.4 352.8,-22.7 705.2,-50 1058.4,-62.1 732.1,-25.1 1464.5,-38.7 2196.8,-62.5 346,-11.4 691.6,-36 1037.6,-53.3 74.3,-3.6 149,-0.7 223.6,-1.9 153.9,-2.5 325.8,-162.4 305.9,-302.7 -13.1,-92.4 -61.9,-179.7 -102.9,-291.4 89.3,-7.6 168.5,-25.7 245.3,-18.8 375.3,33.5 752.2,59.1 1124.2,115 568.6,85.5 1134.3,190.9 1700.2,293.3 246.4,44.6 488.2,126.9 736,149.9 517,48.2 1030.6,84.3 1550.3,-54.1 418.2,-111.5 858.5,-140.9 1289.5,-202.8 281,-40.5 562.6,-78.5 845.1,-107.6 113.7,-11.8 230.3,5.6 345.6,5.2 191.6,-0.5 383.9,4.4 574.8,-9.4 225,-16.3 453.3,-34.8 655.7,74.6 140.9,76.3 217.4,14.9 253.1,-91 36.2,-107.3 50.9,-238.5 20.6,-343.4 -12.9,-44.8 -164.2,-69.7 -252.4,-69.3 -391.1,1.4 -776.6,81.4 -1168.4,86.8 -339.9,4.8 -679.6,24 -1018.9,44.6 -286.9,17.4 -573.2,45.8 -860.3,69.5 -36.1,-168 -164.5,-170.7 -291.2,-163.3 -269.5,15.7 -538.5,41.8 -808.1,56.1 -416.4,22.1 -833.9,62.3 -1249.5,50.4 -558,-16.2 -1115.4,-68 -1671.8,-119.3 -166.3,-15.2 -326.2,-91.1 -492.4,-118.5 -180.8,-29.8 -365.4,-38.6 -548.8,-51.3 -297.5,-20.3 -595.4,-36.2 -893.1,-54.1 -213.1,-12.8 -384.5,112.8 -506.1,243.3 -87.5,93.9 -136.2,290.3 9.2,438.3 -5.1,12 -10.1,23.5 -15.1,35.2 h 0.1"
         style="fill:#231f20;fill-opacity:1;fill-rule:nonzero;stroke:none"
         id="path32" />
      <path
         d="m 37807.6,21504.8 c 298.7,49.2 565.2,89.3 830,137.5 342.5,62.5 683.4,133.3 1025.8,196.7 130.8,24.3 302.3,-120.3 386.3,-337.3 264,36.7 538,64.2 807.5,115.1 298.7,56.6 593,136 890,202.9 211.2,47.6 233.2,31.4 356.9,-146.1 31.4,-45.2 106.9,-91.8 156.9,-86.9 418.8,42.3 837.7,87.5 1253.7,149.9 329.6,49.5 655.7,122.9 982.6,188.8 92.4,18.7 187.6,79.3 272.7,66 165.5,-26 247.7,-159.5 293.8,-334.7 257.9,75.3 515.3,153.2 774.2,225 191.1,53 382.4,112.9 577.7,138.4 73.6,9.6 190.3,-48.6 232.1,-112.2 87.3,-132.8 164.2,-134.5 303.3,-80.8 268.6,103.8 545.7,192.1 826.2,254.5 84,18.6 211.5,-49.1 283.6,-115.6 79.9,-73.9 134.6,-105.6 247.7,-76.2 215.2,56.3 437.8,84.2 656.6,127.3 346.5,68.3 691.9,141.7 1038.9,206.4 52.9,9.9 133.4,4 164.7,-29 77,-81.1 132.6,-182.4 224.4,-315.3 335.5,75.9 701.7,154.9 1065.7,242.8 139,33.5 272.4,89.3 409.5,131 79.8,24.2 267.8,-77.2 308.4,-186.8 35.4,-95.6 92.3,-114.8 176.8,-106.4 267.1,26.9 534.3,52.7 801,83.1 156.8,17.7 467.3,-137.1 515.4,-269 16.2,-44.4 13.9,-95.7 20.4,-146.3 -131,-21.8 -238.9,-50.4 -348.1,-55.6 -152.6,-7.3 -306.2,4.3 -459.4,4.9 -91.8,0.3 -184.1,-11.6 -275.5,-5.9 -148.6,9.4 -296.9,27 -444.5,45.2 -31.8,4.1 -75.2,17.6 -89.7,41.1 -118,191.7 -299.2,161.6 -451,95.6 -439.8,-191.2 -915.7,-191.4 -1372.4,-289.6 -28.3,-6 -64.8,-4 -83.6,-21 -122.3,-112.3 -202.7,-23.8 -314.5,33.8 -135.2,69.7 -68.7,169.9 -90.3,283.3 -182.2,-24.5 -362.9,-41 -540.6,-74.1 -304,-56.6 -606.6,-120.6 -908.1,-188.7 -63.3,-14.4 -124.5,-53.4 -177.8,-93.1 -217.5,-161.9 -420.8,-87.4 -485.3,181.9 -4,17.2 -4.6,35.2 -9.3,73.6 -201.4,-59.8 -391.4,-109.9 -576.9,-173.2 -167.7,-57.3 -333.3,-123.1 -494.3,-197.1 -90,-41.5 -174.8,-100.2 -251.2,-163.9 -103.4,-86.1 -169.2,-81.4 -291.9,43.4 -102.2,104 -107.4,188.7 -18.6,280.9 16.5,17.2 29.1,38 50.7,66.5 -34.2,2.7 -62.4,12.1 -86.4,5.6 -436.9,-117.2 -873.1,-236.6 -1309.7,-354.9 -109.4,-29.7 -260.3,95.4 -284.2,233.7 -4.2,23.4 -9.8,46.7 -16.7,79.7 -373.2,-55.5 -743.6,-110.5 -1114.2,-165.6 -420.4,-62.5 -840.9,-125 -1265.2,-30.7 -18.9,4.3 -44.2,3.7 -55.4,15.6 -175.9,187.5 -385.2,83.7 -569.3,43.9 -456.8,-99.1 -914,-165 -1382.7,-170.1 -183.1,-2.1 -317,62.4 -443.7,178.2 -29.3,26.9 -81.8,49.7 -119,44.1 -512.1,-77.6 -1025,-151.6 -1533.9,-246.5 -184.6,-34.4 -413.1,197.6 -439.1,382 -6.1,42.7 -7.5,86 -11.8,137.9 -259,-45.3 -509.3,-94.3 -761.4,-131.7 -256.3,-38 -513.7,-75.5 -772,-92.3 -162.2,-10.5 -293.4,210.6 -258.2,403.2 7.5,41.4 20.9,81.7 38.1,147.6 -109,-17.5 -200.7,-20.9 -285.3,-47.8 -371.9,-118.3 -741.8,-243.2 -1112.2,-365.9 -13.7,-4.5 -32.9,-7.2 -39.2,-17.1 -113.9,-178.4 -259.4,-166.2 -434.6,-95.3 -71,28.7 -106.8,50.4 -102.3,124.1 6,95.8 -40.6,216.1 94.4,259 469.6,149.1 936,313.6 1413.6,431.4 237.1,58.5 496.4,40.4 745,33.4 156.2,-4.4 247.4,-290.9 145.2,-414.7 -14.2,-17.2 -18.9,-42.3 -36,-82.4 291.5,49.5 565.3,98.1 839.9,141.8 148.2,23.7 305.2,16.7 444.9,63.5 217,72.7 342,-36.5 456.4,-183.1 27.9,-35.9 34.2,-95.1 35.5,-144 1.8,-51 -15.1,-102.8 -31,-193.4 v 0"
         style="fill:#231f20;fill-opacity:1;fill-rule:nonzero;stroke:none"
         id="path34" />
      <path
         d="m 38317,30755.3 c -141,-41.8 -284.9,-77.6 -423.9,-127.1 -144.2,-51.3 -274.2,-72.7 -407.7,36.8 -40.4,33.2 -125.9,27.9 -186.4,16.8 -117.5,-21.5 -230.8,-66.6 -348.3,-88.2 -54.2,-9.8 -122.5,-1.9 -170.3,24 -108.1,58.5 -210.5,79.2 -332.1,42.3 -111.8,-34 -224.5,-72.8 -347.4,4.1 -46.9,29.4 -140.1,-2.9 -208,-22.1 -119.4,-33.9 -216.5,-11 -330.6,44.9 -160.3,78.7 -324.6,140.5 -469.4,253.9 -48.3,37.9 -166.3,0.4 -247.8,-20.3 -163.8,-41.8 -325.1,-136.1 -485.7,-132.7 -146,2.9 -293.7,38.6 -445.3,22.9 -34.3,-3.5 -71.5,46.3 -111.2,61.9 -102.5,40.1 -112,95 -39.2,173.6 134,144.6 311.6,202.2 494.1,248.7 140.8,36 282.1,72.6 425.4,96.3 64,10.4 151,13.4 197,-21.2 154.8,-116.4 316.9,-50.8 470.9,-30.5 114.3,15.1 206.7,42.8 290.4,-68.1 61.5,-81.4 156.7,-84.4 255.9,-65.8 133,25.1 267.8,45.4 402.9,54.1 61.9,4 125.3,-27.7 189,-37.1 65.9,-9.8 136.1,-27.3 198.7,-14.3 105.3,22 194,26.7 285.9,-48.2 36.5,-29.9 112.3,-7.8 168.6,-18.2 71.1,-13 140.7,-34.7 210.7,-53.4 32.4,-8.7 65.8,-31.5 95.8,-27.2 182.3,26.1 363.6,58.9 545.6,87.4 40.3,6.4 91.4,20.3 121.5,2.8 202.4,-116.3 401,-13.5 599.7,5.2 143.5,13.4 284.6,52.8 428.1,64.4 47.2,3.8 109.6,-32.1 145.7,-68.9 83.5,-84.9 157.2,-108.8 288.3,-88.7 180.4,27.5 373.9,116.5 564.2,-52.3 66.9,-59.2 249,7.2 377.7,23 440.9,54.1 880.9,115.7 1322.5,162.3 63.7,6.7 158,-34.3 196.9,-84.9 71.1,-92.8 151.5,-96.7 245,-76.3 244.8,53.5 488.8,111.4 733.5,165.7 22.6,5 56.9,8.2 70.4,-4.5 175.6,-162.9 378.7,-63.1 567.4,-54.2 450,21.1 899.4,58.4 1348.8,91.7 62.4,4.7 123.4,25 185.2,38 27.9,5.9 62.8,25.5 82.9,15.5 288.9,-143.3 582.1,-11.6 872.4,-14.9 377.8,-4.2 759.2,45.4 1132.2,6.5 232.7,-24.2 463.4,-80.4 701.1,-70.7 397.3,16.4 794.6,34.3 1192.1,45.7 53.1,1.6 126.1,-15.2 156.9,-51.4 80.5,-94.8 175.1,-97.6 285.6,-93.7 398.2,14 796.8,20.1 1195.3,29.5 162.7,3.9 325.5,10.4 488.2,12.2 53.9,0.5 107.8,-11.9 161.9,-15.6 449.2,-30.7 900.2,-98.3 1346.6,-75.4 230,11.8 437,-78.7 663.2,-52.4 127.3,15 233.3,-224.1 194.7,-411.6 -80.3,8.8 -162.9,24.1 -245.5,24.8 -71.7,0.8 -143.3,-19 -215.5,-22.4 -74.2,-3.4 -172.3,-27.9 -219.2,8.8 -162.9,127.8 -349.3,70.3 -521.8,85 -272.6,23.4 -548.6,3.9 -822.8,13.4 -472.5,16.6 -944.6,48.5 -1417.1,59.7 -205.2,4.8 -411.3,-22.9 -616.3,-42.1 -158.9,-15 -304.9,-4.1 -441.9,95.6 -58.2,42.4 -144.6,63.6 -218.1,63.6 -242.3,0 -484.8,-22.7 -727.1,-20.8 -337,2.3 -671.3,-19.3 -1010.5,59.3 -253.4,58.6 -530.6,29.3 -796.2,16.7 -289.3,-13.8 -579.1,-42.5 -865.3,-87.6 -111.5,-17.6 -205.6,7.5 -309.4,17.6 -228.4,22.3 -461.7,25.4 -690.6,6.9 -400.9,-32.6 -799.5,-95.8 -1200.4,-128.4 -168.4,-13.8 -343.7,44.3 -510,23 -422.9,-54 -843.5,-128.3 -1262.6,-206.9 -156.2,-29.3 -253.8,35.5 -327.3,150.7 -41,64.5 -73.3,78.5 -149.9,65.1 -405.3,-71.3 -812.1,-135 -1219.2,-195.4 -62.1,-9.3 -150.5,-12.1 -189.2,23.2 -139.7,127.8 -293.7,99.6 -449.3,67.5 -198.8,-40.9 -395.8,-91 -593.5,-137 -133,-31.3 -279.8,58.5 -326.9,219.4 v 0"
         style="fill:#231f20;fill-opacity:1;fill-rule:nonzero;stroke:none"
         id="path36" />
      <path
         d="m 39416.5,10545.4 c -324.8,-69.4 -623.5,59 -933.3,114.2 -172.4,30.6 -312.1,96.1 -455.4,192.7 -383.4,258.2 -788,262.4 -1202.9,61.3 -87.7,-42.5 -194.3,-46.5 -292.4,-67 -230.1,-48 -458.9,-122.7 -690.9,-135.2 -276.8,-14.9 -515.5,133 -749,271.2 -220.7,130.6 -462.4,167.9 -707.9,103.6 -106,-27.7 -216,-91.3 -291.9,-169.9 -92.6,-95.6 -186.6,-64 -262,-24.2 -77.7,40.9 -139.7,124 -187,201.8 -12.7,20.8 51.3,127.2 85,129.9 108.6,8.3 180.8,84.4 266.6,114.2 205.6,71.8 430.2,118.2 647.6,119.8 265.5,2.2 479.3,-184.3 720.8,-275.5 52.2,-19.6 108.5,-44.4 161.8,-42.1 226.1,10.1 455.2,11.1 677.2,50.2 298.9,52.7 589.9,150 888.6,203.5 156.1,27.9 332,38.5 480.3,-5.4 246.3,-73.2 480.7,-190.3 714.7,-300.3 334.4,-157 681.6,-217.4 1044,-147.7 277.9,53.5 551.8,127.1 828.3,188.7 202.8,45.2 405.9,113.8 610.3,119.8 199,5.7 402,-46.2 599.8,-88.2 325.3,-69.2 647.4,-153.4 972,-226.4 239.2,-53.7 478.2,-114.2 720.6,-145.7 268.4,-34.9 533.5,-9.8 793.1,93 168.9,66.9 364.6,68 531.2,138.7 362.6,154 700.8,-0.6 1045.1,-54.5 232.1,-36.4 456.6,-119 686.2,-174 242.5,-58.2 485.5,-117.4 731.3,-157.9 135.7,-22.4 278.8,-18.4 416.9,-6.7 398.5,33.9 787.6,124.5 1138.8,315.9 268.1,146.1 508.2,69.6 752.2,-27.3 330,-130.9 652.1,-282.4 982.5,-412.3 250.2,-98.6 505.1,-118.7 778.9,-63.7 365.5,73.2 722.2,254.2 1108.7,153.4 123.7,-32.2 234.9,-111.8 351.7,-170 85.3,-42.5 166.1,-103.6 256.3,-124.6 278.3,-65.3 560.9,-66.1 842.7,-15.1 136.4,24.6 193.3,-19.8 255.4,-191.9 39.5,-109.5 -20.2,-162 -107.8,-202.5 -228,-105.4 -459.9,-176.1 -715.6,-109.7 -105,27.4 -216.8,30.1 -320.1,62 -69.6,21.4 -129.5,73.9 -193.7,113 -3.5,2.3 -4,9 -7.2,12.7 -107,119.9 -555.5,217.6 -716.9,184 -295.2,-61.2 -595.4,-98 -892.3,-151 -284.1,-50.8 -531.4,53.5 -773.9,175.3 -336.9,169.6 -701.9,249.5 -1068.6,279.2 -218.9,17.8 -446,-68.5 -669.6,-105.7 -260.6,-43.5 -520.6,-91.9 -782.7,-124.4 -137.8,-17.2 -279.2,-8.4 -418.8,-4.5 -81.2,2.3 -161.9,17.9 -242.7,28.1 -140.7,17.8 -281.5,35 -422,54 -65.8,8.9 -154.2,-1.6 -192.4,36.7 -155.4,156.1 -358.2,163.9 -550.3,189.3 -277.1,36.6 -558,69.2 -836.3,62.5 -201.9,-5 -402.2,-77.5 -603.4,-118.3 -191.9,-38.9 -380.5,-111.2 -582.4,-50.8 -38.9,11.7 -85.6,-6.4 -128.2,-2.9 -186.9,14.3 -373.5,32 -560.5,47.5 -107.4,8.9 -215.1,15.4 -322.6,24.1 -38.2,2.9 -77.6,4.4 -114.2,14.5 -366.5,100.7 -729.3,218.5 -1100.3,298 -157.3,33.7 -332.6,-2.8 -497.8,-23.6 -172,-21.5 -341.3,-64.2 -512.4,-94.4 -250.9,-44.3 -502,-88 -753.8,-127.4 -75.4,-11.9 -152.9,-8.5 -229.4,-12 v 0"
         style="fill:#231f20;fill-opacity:1;fill-rule:nonzero;stroke:none"
         id="path38" />
      <path
         d="m 48682.1,35051.1 c -231.4,17.6 -462.8,40 -694.6,51.1 -125.1,6 -251.4,-14.7 -376.9,-9.8 -292.5,11.2 -584.8,35.7 -877.2,45.3 -298.6,9.9 -598.2,-0.6 -896.4,14.1 -372.3,18.4 -743.5,60.6 -1115.5,79 -259.4,12.9 -519.9,6.4 -779.7,2.9 -391.6,-5.4 -783.3,-23.4 -1174.9,-22.2 -511.3,1.6 -1022.8,10.7 -1534,27.8 -518.5,17.3 -1036.4,54.3 -1555,70.9 -426,13.5 -852.5,11.4 -1278.9,12.9 -347.1,1.2 -694.3,4.8 -1041,-7.1 -240.4,-8.1 -479.8,-45.4 -720.3,-60.4 -148.4,-9.2 -298,3.7 -446.7,-1.9 -322.6,-12.1 -645.1,-30.7 -967.6,-44.6 -236.9,-10.3 -474,-15.7 -710.7,-27.2 -51.8,-2.5 -105.8,-14.2 -153.5,-34.5 -171.1,-72.3 -290.4,-45.6 -396.3,96.4 -90.8,121.5 -21.8,247.5 150.2,268.4 199.4,24.1 398.8,51.5 599.2,64.7 523.1,34.5 1046.3,74.4 1570.2,89.6 723.7,21.1 1448.1,22.3 2172.2,31 828,9.9 1656.1,26.8 2484.3,25.7 754.9,-0.9 1510,-19.2 2264.8,-34.4 875.6,-17.8 1751.1,-31.3 2625.9,-64.1 682.6,-25.6 1363.7,-82.3 2045.8,-115.9 275.1,-13.6 551.4,4.2 826.8,-4.3 216.8,-6.6 433.7,-24.7 649.1,-50.2 463.9,-54.9 923.4,6.2 1384.9,33.4 196.3,11.6 395.5,-28.8 592.9,-24.1 366.9,8.6 735.5,64.5 1098.9,38.2 200.4,-14.5 409.2,88.6 604.1,-31.5 28.3,-17.5 76.3,-2.5 115,-3.4 164,-4.3 291.1,-118.5 314.4,-282.2 15.5,-108 -40.5,-163.8 -150,-152.1 -176.1,18.6 -352.6,52.1 -528.4,50.2 -288,-3.3 -575.5,-35 -863.4,-45.5 -211.2,-7.7 -422.9,-3 -634.2,0.3 -195.3,3 -391.1,23.6 -585.6,14.5 -159.2,-7.6 -316.2,-59.6 -475.4,-69.4 -122.4,-7.5 -246.7,27 -370.7,30.6 -202,6 -404.5,-2.9 -606.5,4 -188.5,6.5 -376.6,25.4 -564.9,38.9 0,-1.7 -0.1,-3.4 -0.4,-5.1 v 0"
         style="fill:#231f20;fill-opacity:1;fill-rule:nonzero;stroke:none"
         id="path40" />
      <path
         d="m 26937,34970.9 c -199.9,22.6 -404,56.2 -609.3,66.3 -330.8,16.2 -662.4,13.5 -993.4,25.6 -178,6.6 -355.3,30.1 -533.2,40.9 -162.1,10 -324.9,9.5 -486.8,20.4 -143.9,9.6 -287.2,41.6 -430.7,40.5 -379.6,-2.6 -759.1,-17.7 -1138.7,-28.1 -220.5,-6 -447.2,18 -659.9,-25.9 -310.9,-64.1 -602.4,43.9 -903.7,45.6 -115.8,0.7 -231.4,18.9 -347.4,23.8 -376.3,15.8 -752.6,30.1 -1129,43.2 -458.6,16.1 -917.1,33.1 -1375.8,45.2 -448.4,12 -897,14.5 -1345.5,28.5 -454.6,14.2 -908.7,45.7 -1363.4,53.5 -337.8,5.9 -676.2,-9.7 -1014.1,-23.5 -585.5,-24 -1170.6,-55.9 -1756.1,-81 -348.3,-14.9 -697.3,-17.4 -1045.3,-36.2 -221.3,-12 -441,-52.5 -662.3,-65.3 -567.2,-32.9 -1134.6,-59.9 -1702.16,-84.2 -503.6,-21.5 -1007.57,-51.5 -1511.3,-50.1 -594.86,1.7 -1189.58,30.5 -1784.19,53.7 -119.63,4.7 -250.1,19 -283.6,174.2 -31.92,148.1 71.99,221.3 222.32,199.9 213.68,-30.5 431.74,-31.8 648.21,-39.6 452.32,-16.2 904.77,-39.2 1357.08,-39 413.1,0.1 826.19,27.7 1239.29,42.5 328.67,11.8 658.19,12.1 986.05,36.2 493,36.3 984.3,96.1 1477.2,132.4 461.9,34.1 925.2,49.6 1387.7,75.3 435.3,24.3 870.3,56.1 1305.8,75.8 516.7,23.4 1032.6,13.5 1549.1,-27.4 348.2,-27.5 699.4,-15.5 1049.3,-24.4 707.2,-17.9 1414.5,-35.2 2121.7,-58.3 411.4,-13.4 822.4,-36.6 1233.6,-57.7 396,-20.3 791.9,-56.8 1188.1,-62.4 657,-9.3 1314.3,8.1 1971.3,0.1 614.6,-7.6 1229.9,-62.3 1843,-41.8 406.2,13.5 768.2,-140.4 1154.6,-190.2 71.9,-9.2 141.8,-38.7 213.7,-43.8 148.3,-10.8 173.1,-90.5 127.8,-244.7 v 0"
         style="fill:#231f20;fill-opacity:1;fill-rule:nonzero;stroke:none"
         id="path42" />
    </g>
  </g>
</svg>
